<?xml version="1.0" encoding="UTF-8"?>
<svg version="1.1" xmlns="http://www.w3.org/2000/svg" width="20" height="15">
<path d="M0 0 C6.6 0 13.2 0 20 0 C20 4.95 20 9.9 20 15 C13.4 15 6.8 15 0 15 C0 10.05 0 5.1 0 0 Z " fill="#FDFAFA" transform="translate(0,0)"/>
<path d="M0 0 C4.26511313 1.70604525 6.61418999 3.09787714 10 6 C8.89904638 9.30286086 8.3103981 9.78510901 5.5625 11.6875 C4.63630859 12.34298828 4.63630859 12.34298828 3.69140625 13.01171875 C2 14 2 14 0 14 C0 9.38 0 4.76 0 0 Z " fill="#D43527" transform="translate(5,0)"/>
</svg>
